General                          : ChattChitto RG - Movies [R2L]
==========
Complete name                    : Faster 2010 720p BRRip H264 [ChattChitto RG]
Format                           : MPEG-4
Format profile                   : Base Media
Codec ID                         : isom
File size                        : 1.82 GiB
Duration                         : 1h 37mn
Overall bit rate                 : 2 653 Kbps
Encoded date                     : UTC 2011-02-11 22:45:06

Video
==========
ID                               : 1
Format                           : AVC
Format/Info                      : Advanced Video Codec
Format profile                   : High@L4.0
Format settings, CABAC           : Yes
Format settings, ReFrames        : 4 frames
Codec ID                         : avc1
Codec ID/Info                    : Advanced Video Coding
Duration                         : 1h 37mn
Bit rate mode                    : Variable
Bit rate                         : 2 300 Kbps
Maximum bit rate                 : 13.1 Mbps
Width                            : 1 280 pixels
Height                           : 528 pixels
Display aspect ratio             : 2.40:1
Frame rate mode                  : Constant
Frame rate                       : 23.976 fps
Resolution                       : 24 bits
Colorimetry                      : 4:2:0
Scan type                        : Progressive
Bits/(Pixel*Frame)               : 0.142
Stream size                      : 1.57 GiB (87%)
Writing library                  : x264 core 84 r1400M 20fa784
Encoded date                     : UTC 2011-02-11 07:35:21

Audio
==========
ID                               : 2
Format                           : AAC
Format/Info                      : Advanced Audio Codec
Format version                   : Version 4
Format profile                   : LC
Format settings, SBR             : No
Codec ID                         : 40
Duration                         : 1h 37mn
Bit rate mode                    : Variable
Bit rate                         : 352.8 Kbps
Maximum bit rate                 : 498 Kbps
Channel(s)                       : 6 channels
Channel positions                : Front: L C R, Rear: L R, LFE
Sampling rate                    : 48.0 KHz
Resolution                       : 16 bits
Stream size                      : 245 MiB (13%)
Encoded date                     : UTC 2011-02-11 22:46:12

Subtitles                        : English | Portuguese


----------------------------------------------------
IMDB Link: http://www.imdb.com/title/tt1433108/
----------------------------------------------------



Screen Shots:
==============    
http://bayimg.com/NADeGAADN 
http://bayimg.com/naDehaaDn 
http://bayimg.com/nadeiaadN 
http://bayimg.com/NADejAAdN 
http://bayimg.com/naDEkaAdn



ScreenShots Comparison:
=========================  
http://screenshotcomparison.com/comparison/27768



Plot:
======
An ex-con sets out to avenge his brother's death after they were double-crossed during a heist years ago. During his campaign, however, he's tracked by a veteran cop and an egocentric hit man.



Release Info:
==============
original name .... : Faster 2010 720p BRRip H264 [ChattChitto RG]
ripper.............: SECTOR7
encoder............: Recalled2Life (R2L)
video codec........: H264/.MP4
video bitrate......: 2300 Kbps
audio codec........: AAC-LC
aspect ratio.......: 2.40:1
resolution.........: 1280 x 528
genre..............: Action | Crime | Drama
runtime............: 1h 37mn
language...........: English
rating.............: R
subtitles..........: English | Portuguese
sample.............: Yes [15.8 MB]
2ch Audio..........: 2ch Audio for XBox Viewers
Compatibility .....: XBox | PS3 | WD Live



Source:
========
Faster.2010.1080p.BluRay.x264-SECTOR7  THANKS!



Notes:
=======
ChattChitto RG Encourages Burning this Film with ConvertXtoDVD and Playing with VLC media player.
XBox 360 | PS3 | WD Live - Compatible 
Enhanced for your viewing pleasure ;)